HIERARCHY
ROOT Hips
{
 OFFSET 0.000000 0.000000 0.000000
 CHANNELS 6 Xposition Yposition Zposition Yrotation Xrotation Zrotation
 JOINT Chest
 {
  OFFSET 0.000000 9.585900 0.002600
  CHANNELS 3 Yrotation Xrotation Zrotation
  JOINT Chest2
  {
   OFFSET 0.000000 9.601200 -0.005300
   CHANNELS 3 Yrotation Xrotation Zrotation
   JOINT Chest3
   {
    OFFSET 0.000000 9.561800 0.000000
    CHANNELS 3 Yrotation Xrotation Zrotation
    JOINT Chest4
    {
     OFFSET 0.000000 9.552100 0.000000
     CHANNELS 3 Yrotation Xrotation Zrotation
     JOINT Neck
     {
      OFFSET 0.000000 14.453000 0.000000
      CHANNELS 3 Yrotation Xrotation Zrotation
      JOINT Head
      {
       OFFSET 0.000000 8.936500 -0.011300
       CHANNELS 3 Yrotation Xrotation Zrotation
       End Site
       {
        OFFSET 0.000000 17.073600 -0.006000
       }
      }
     }
     JOINT RightCollar
     {
      OFFSET -2.921100 9.558500 0.000000
      CHANNELS 3 Yrotation Xrotation Zrotation
      JOINT RightShoulder
      {
       OFFSET -13.519700 0.000000 0.000000
       CHANNELS 3 Yrotation Xrotation Zrotation
       JOINT RightElbow
       {
        OFFSET 0.000000 -29.696600 0.000000
        CHANNELS 3 Yrotation Xrotation Zrotation
        JOINT RightWrist
        {
         OFFSET 0.000000 -24.004700 0.000000
         CHANNELS 3 Yrotation Xrotation Zrotation
         End Site
         {
          OFFSET 0.000000 -17.728500 0.000000
         }
        }
       }
      }
     }
     JOINT LeftCollar
     {
      OFFSET 2.921100 9.558500 0.000000
      CHANNELS 3 Yrotation Xrotation Zrotation
      JOINT LeftShoulder
      {
       OFFSET 13.519700 0.000000 0.000000
       CHANNELS 3 Yrotation Xrotation Zrotation
       JOINT LeftElbow
       {
        OFFSET 0.000000 -29.696600 0.000000
        CHANNELS 3 Yrotation Xrotation Zrotation
        JOINT LeftWrist
        {
         OFFSET 0.000000 -24.004700 0.000000
         CHANNELS 3 Yrotation Xrotation Zrotation
         End Site
         {
          OFFSET 0.000000 -17.728500 0.000000
         }
        }
       }
      }
     }
    }
   }
  }
 }
 JOINT RightHip
 {
  OFFSET -7.771700 -0.012900 -0.001300
  CHANNELS 3 Yrotation Xrotation Zrotation
  JOINT RightKnee
  {
   OFFSET 0.000000 -40.869800 0.001200
   CHANNELS 3 Yrotation Xrotation Zrotation
   JOINT RightAnkle
   {
    OFFSET 0.000000 -39.717900 0.002100
    CHANNELS 3 Yrotation Xrotation Zrotation
    JOINT RightToe
    {
     OFFSET 0.000000 -4.965400 11.033500
     CHANNELS 3 Yrotation Xrotation Zrotation
     End Site
     {
      OFFSET 0.000000 -1.423100 5.872300
     }
    }
   }
  }
 }
 JOINT LeftHip
 {
  OFFSET 7.771700 -0.012900 -0.001300
  CHANNELS 3 Yrotation Xrotation Zrotation
  JOINT LeftKnee
  {
   OFFSET 0.000000 -40.869800 0.001200
   CHANNELS 3 Yrotation Xrotation Zrotation
   JOINT LeftAnkle
   {
    OFFSET 0.000000 -39.717900 0.002100
    CHANNELS 3 Yrotation Xrotation Zrotation
    JOINT LeftToe
    {
     OFFSET 0.000000 -4.965400 11.033500
     CHANNELS 3 Yrotation Xrotation Zrotation
     End Site
     {
      OFFSET 0.000000 -1.423100 5.872300
     }
    }
   }
  }
 }
}
MOTION
Frames: 15
Frame Time: 0.008333
0.000000 85.388000 0.000000 0.000000 -5.767877 0.000000 0.000000 11.653817 0.000000 0.000000 -5.885947 0.000000 0.000000 -0.000000 0.000000 0.000000 -0.000000 0.000000 0.000000 12.528835 0.000000 0.000000 0.711642 0.000000 0.000000 -0.000000 0.000000 0.000000 0.000000 -90.000000 0.000000 -2.309062 0.000000 0.000000 2.309062 0.000000 0.000000 -0.000000 0.000000 0.000000 -0.000000 90.000000 0.000000 -2.309062 0.000000 0.000000 2.309062 0.000000 0.000000 8.520406 0.000000 0.000000 1.905762 0.000000 -0.000000 -4.658285 0.000000 0.000000 -0.000000 0.000000 0.000000 8.520406 0.000000 0.000000 1.905762 0.000000 -0.000000 -4.658285 0.000000 0.000000 -0.000000 0.000000
-113.895639 58.120711 98.455148 174.229213 -26.451512 -1.733398 6.288535 20.933664 3.198831 0.749293 2.872813 0.291402 1.237586 4.664791 0.491344 5.042351 17.818295 2.508212 -1.873427 5.964291 -1.025192 -3.195192 -24.722144 -1.064630 -2.414267 -0.135688 0.710953 -3.105756 -15.251403 -10.739666 172.628899 -46.563162 -155.063078 16.776737 -14.662143 -52.346704 -4.329845 -2.216767 -0.424516 13.899219 -12.292223 -2.682761 -143.644345 -29.440873 146.896114 -18.986217 -17.558185 42.799798 8.061835 -49.071081 0.925551 -14.689575 67.053489 -19.216220 6.576121 25.176818 6.232420 -0.544188 -18.199670 4.818992 -4.347419 -46.398511 3.279391 25.739349 66.320624 24.310781 -15.692308 5.593096 -1.559256 -0.329589 -0.037978 -0.212579
-113.896759 58.116014 98.449610 174.224533 -26.427806 -1.729620 6.260727 20.936851 3.191839 0.744702 2.871754 0.290535 1.260512 4.648820 0.483237 4.987324 17.833837 2.510864 -1.866576 5.961253 -1.026751 -3.154675 -24.745675 -1.084861 -2.361530 -0.126143 0.687363 -2.848597 -15.388826 -10.601197 171.448004 -48.074857 -154.005480 16.760536 -14.606880 -52.322517 -4.269022 -2.227181 -0.453461 13.518114 -12.325650 -2.877272 -142.221361 -30.234013 145.258670 -18.921303 -17.475437 42.676371 8.152086 -49.102787 0.882900 -14.728243 67.073102 -19.235598 6.580046 25.162233 6.228315 -0.551169 -18.200545 4.850596 -4.444960 -46.427100 3.265745 25.761939 66.334786 24.382462 -15.633079 5.579736 -1.613843 -0.321819 -0.027999 -0.219102
-113.893405 58.111651 98.442178 174.193847 -26.415556 -1.736517 6.266017 20.941354 3.209654 0.739637 2.869899 0.289706 1.251473 4.656154 0.482594 4.958027 17.824351 2.501448 -1.832424 5.959578 -1.039809 -3.222062 -24.710005 -1.051162 -2.302383 -0.084305 0.669089 -2.552091 -15.562780 -10.446425 169.982520 -49.621696 -152.705883 16.766494 -14.491583 -52.264150 -4.215402 -2.194933 -0.496257 13.119738 -12.434050 -3.118605 -140.591597 -31.061030 143.402162 -18.857796 -17.373144 42.515110 8.226172 -49.124944 0.885066 -14.811154 67.079560 -19.290498 6.535682 25.177831 6.188402 -0.504654 -18.218990 4.879783 -4.534939 -46.441870 3.284173 25.800009 66.347386 24.465889 -15.535640 5.557766 -1.640397 -0.363824 -0.011027 -0.244284
-113.892339 58.107359 98.433156 174.222980 -26.409833 -1.750253 6.217445 20.948043 3.206403 0.727692 2.869960 0.290590 1.213833 4.662450 0.487844 4.957741 17.814549 2.484930 -1.838230 5.969316 -1.034943 -3.189921 -24.703151 -1.066416 -2.242265 -0.069975 0.648142 -2.212488 -15.711628 -10.274897 168.241411 -51.184493 -151.167818 16.781841 -14.346693 -52.193556 -4.163915 -2.156613 -0.543952 12.706868 -12.581242 -3.402063 -138.760646 -31.871571 141.342196 -18.793498 -17.238698 42.294390 8.248075 -49.138785 0.873509 -14.847454 67.103979 -19.327584 6.572263 25.138629 6.252680 -0.534432 -18.203191 4.855865 -4.607400 -46.448639 3.272906 25.761116 66.368534 24.484191 -15.572370 5.529010 -1.744307 -0.276003 0.005362 -0.196837
-113.889415 58.102995 98.424462 174.230539 -26.407622 -1.759242 6.204866 20.948974 3.210480 0.702963 2.873769 0.294328 1.235088 4.657494 0.482379 4.909598 17.814217 2.486793 -1.845284 5.976644 -1.031711 -3.159574 -24.696638 -1.081805 -2.178751 -0.004217 0.651883 -1.839427 -15.914536 -10.122882 166.291383 -52.742098 -149.442960 16.809703 -14.206101 -52.138189 -4.123675 -2.104437 -0.588550 12.299116 -12.773791 -3.723749 -136.750764 -32.614567 139.112406 -18.727627 -17.061770 42.003711 8.242838 -49.162159 0.921671 -14.944690 67.135338 -19.462023 6.568454 25.126923 6.268340 -0.533780 -18.213907 4.870751 -4.662688 -46.451623 3.268656 25.741210 66.383288 24.514723 -15.564829 5.502594 -1.814832 -0.229959 0.014662 -0.182382
-113.887468 58.098092 98.417326 174.235690 -26.401550 -1.755613 6.166891 20.954516 3.198612 0.716533 2.867373 0.290600 1.211263 4.657408 0.485565 4.896229 17.816785 2.480888 -1.840101 5.980703 -1.034673 -3.147492 -24.689271 -1.090746 -2.126901 0.009323 0.641289 -1.452110 -16.070492 -9.966765 164.228570 -54.275822 -147.607147 16.860365 -14.085427 -52.118721 -4.139403 -1.991784 -0.657862 11.946301 -13.062211 -4.045734 -134.608056 -33.248220 136.762373 -18.654973 -16.848333 41.647370 8.222307 -49.178490 0.951108 -15.007044 67.149042 -19.554401 6.584699 25.118358 6.273480 -0.538501 -18.217852 4.879103 -4.736310 -46.460586 3.251254 25.807101 66.384480 24.609139 -15.531545 5.490472 -1.856700 -0.225678 0.025824 -0.177521
-113.885980 58.093217 98.411222 174.240017 -26.397943 -1.743451 6.111795 20.967980 3.175769 0.745250 2.856515 0.283714 1.164334 4.669379 0.492971 4.919277 17.811115 2.466973 -1.843712 5.988972 -1.034611 -3.136918 -24.682386 -1.099672 -2.078309 0.043485 0.660669 -1.073827 -16.250992 -9.858114 162.134332 -55.758750 -145.733904 16.945742 -13.967753 -52.127861 -4.173937 -1.904673 -0.721989 11.615890 -13.340236 -4.362546 -132.393424 -33.744120 134.351605 -18.573147 -16.618731 41.249625 8.200488 -49.190559 0.975511 -15.073736 67.158384 -19.656297 6.603960 25.111610 6.280433 -0.541331 -18.221090 4.884361 -4.789730 -46.465931 3.218899 25.868356 66.381291 24.698194 -15.511956 5.477059 -1.892275 -0.232161 0.037966 -0.175758
-113.883933 58.087931 98.407618 174.233267 -26.389770 -1.726375 6.105728 20.964138 3.159066 0.702579 2.877996 0.289424 1.191978 4.655371 0.485876 4.927428 17.804911 2.462351 -1.862821 6.007093 -1.029808 -3.127935 -24.675368 -1.107304 -2.052480 0.073210 0.685311 -0.710184 -16.418932 -9.773560 160.042812 -57.148472 -143.860704 17.072622 -13.829342 -52.137769 -4.239384 -1.830046 -0.783952 11.306707 -13.594182 -4.658428 -130.176872 -34.090413 131.958813 -18.498190 -16.385993 40.834369 8.193999 -49.206404 0.990208 -15.128737 67.161179 -19.740571 6.628510 25.118657 6.288574 -0.547609 -18.231515 4.889164 -4.826425 -46.475078 3.190771 25.916971 66.378898 24.769002 -15.488973 5.461386 -1.923550 -0.235379 0.051569 -0.171446
-113.881555 58.082600 98.405914 174.223644 -26.381711 -1.707818 6.085424 20.969743 3.137103 0.708147 2.878651 0.287817 1.201755 4.647299 0.484655 4.899091 17.820485 2.463816 -1.854581 6.013850 -1.041301 -3.118340 -24.677596 -1.110167 -2.013895 0.063946 0.679397 -0.359533 -16.551685 -9.691748 157.943173 -58.390912 -141.988012 17.240483 -13.659635 -52.120555 -4.303552 -1.765977 -0.867707 11.020149 -13.824571 -4.918735 -128.052405 -34.295167 129.680552 -18.453555 -16.143407 40.390990 8.209450 -49.217757 0.982328 -15.161878 67.159455 -19.786570 6.653070 25.117135 6.307688 -0.562813 -18.229629 4.883472 -4.854805 -46.482964 3.163895 25.961050 66.374786 24.830873 -15.464866 5.442052 -1.951671 -0.241838 0.067424 -0.166260
-113.879550 58.077008 98.406596 174.214897 -26.370550 -1.687078 6.065382 20.977648 3.112097 0.723038 2.866622 0.286160 1.184698 4.661713 0.484572 4.892141 17.824567 2.456149 -1.846715 6.019215 -1.051964 -3.106527 -24.696796 -1.104502 -1.940487 0.133170 0.720518 -0.055658 -16.744775 -9.669554 155.839333 -59.413797 -140.132273 17.451362 -13.439700 -52.050793 -4.391333 -1.689864 -0.953042 10.755868 -14.018654 -5.134863 -126.125169 -34.378690 127.616465 -18.441280 -15.867576 39.892227 8.194043 -49.234574 1.002582 -15.183711 67.157118 -19.845709 6.661828 25.121349 6.315121 -0.573234 -18.228791 4.886618 -4.875975 -46.493895 3.143270 26.016877 66.367597 24.884037 -15.452073 5.425107 -1.960108 -0.259418 0.082764 -0.165001
-113.877741 58.071473 98.409183 174.214699 -26.359610 -1.669626 6.038711 21.016603 3.077761 0.731612 2.842085 0.289574 1.184418 4.665778 0.482119 4.875235 17.872622 2.434006 -1.821235 5.959926 -1.039923 -3.112177 -24.693307 -1.109280 -1.882890 0.148371 0.771451 0.244545 -16.893977 -9.652349 153.773028 -60.134512 -138.341755 17.703379 -13.158905 -51.912375 -4.489799 -1.642331 -1.023116 10.524279 -14.162144 -5.292998 -124.476516 -34.378876 125.857043 -18.448355 -15.521934 39.332824 8.173065 -49.253458 1.019577 -15.203110 67.152700 -19.899647 6.670848 25.149954 6.321065 -0.572970 -18.247958 4.887441 -4.927216 -46.503729 3.133888 26.102665 66.356364 24.952352 -15.431650 5.394852 -1.969859 -0.280996 0.108848 -0.164950
-113.873342 58.066565 98.413128 174.221004 -26.354252 -1.671741 6.027854 21.044319 3.067890 0.725330 2.857989 0.286174 1.186977 4.652525 0.482762 4.867204 17.911935 2.417480 -1.804927 5.899550 -1.029111 -3.108469 -24.771641 -1.132197 -1.846471 0.167912 0.816927 0.530381 -16.985767 -9.643259 151.803880 -60.488233 -136.677398 17.971847 -12.847709 -51.714085 -4.609783 -1.575867 -1.102543 10.331715 -14.235769 -5.380580 -123.160363 -34.359565 124.473519 -18.460550 -15.071296 38.726186 8.124115 -49.270841 1.056812 -15.197918 67.151662 -19.926093 6.692646 25.195080 6.342380 -0.585747 -18.283397 4.877136 -4.954901 -46.509667 3.137088 26.083303 66.354382 24.948863 -15.434612 5.383439 -2.007163 -0.261700 0.116049 -0.147826
-113.871874 58.060992 98.420377 174.230155 -26.336303 -1.660641 6.009709 21.067286 3.038617 0.728161 2.838484 0.291984 1.178769 4.725331 0.467018 4.865744 17.896424 2.408972 -1.797927 5.847834 -1.025629 -3.095590 -24.874995 -1.134811 -1.818508 0.201167 0.863477 0.786716 -17.013840 -9.646418 150.037089 -60.449159 -135.234666 18.220090 -12.550748 -51.488767 -4.739581 -1.499210 -1.192194 10.185209 -14.218949 -5.392017 -122.217304 -34.390650 123.515308 -18.440211 -14.499856 38.091457 8.080571 -49.306119 1.074140 -15.179526 67.165656 -19.944687 6.707446 25.221289 6.355513 -0.593261 -18.305882 4.869946 -5.001251 -46.529282 3.137884 26.100650 66.346423 24.960311 -15.436043 5.376667 -2.039637 -0.262077 0.119047 -0.136304
-113.868610 58.056653 98.428087 174.233315 -26.326418 -1.658877 6.003053 21.103867 3.020129 0.727147 2.837832 0.294211 1.178388 4.762898 0.457827 4.861456 17.907392 2.397471 -1.791500 5.775763 -1.019462 -3.078395 -25.009998 -1.134522 -1.792727 0.229677 0.912936 0.990062 -16.962373 -9.657474 148.617766 -60.040829 -134.130922 18.418489 -12.315218 -51.290302 -4.871840 -1.432924 -1.284301 10.106799 -14.100005 -5.331488 -121.681142 -34.535973 123.002381 -18.326462 -13.817221 37.464897 8.075919 -49.319415 1.074758 -15.189235 67.152080 -19.959772 6.735330 25.243908 6.376367 -0.600211 -18.315704 4.857698 -5.089285 -46.533749 3.179891 26.138141 66.334820 24.962945 -15.414277 5.358331 -2.062788 -0.259310 0.131360 -0.129670
